<?xml version="1.0"?>
<svg xmlns="http://www.w3.org/2000/svg" xmlns:xlink="http://www.w3.org/1999/xlink" version="1.1" viewBox="0 0 129 129" enable-background="new 0 0 129 129" width="512px" height="512px" class=""><g transform="matrix(1.08232, 0, 0, 1.08232, -5.30934, -5.30934)"><g>
    <g>
      <path d="m10.5,58.9h44.3c2.3,0 4.1-1.8 4.1-4.1v-44.3c0-2.3-1.8-4.1-4.1-4.1h-44.3c-2.3,0-4.1,1.8-4.1,4.1v44.3c0,2.2 1.9,4.1 4.1,4.1zm4.1-44.3h36.1v36.1h-36.1v-36.1z" data-original="#000000" class="active-path" fill="#000000"/>
      <path d="m122.6,10.5c0-2.3-1.8-4.1-4.1-4.1h-44.3c-2.3,0-4.1,1.8-4.1,4.1v44.3c0,2.3 1.8,4.1 4.1,4.1h44.3c2.3,0 4.1-1.8 4.1-4.1v-44.3zm-8.2,40.2h-36.1v-36.1h36.1v36.1z" data-original="#000000" class="active-path" fill="#000000"/>
      <path d="m10.5,122.6h44.3c2.3,0 4.1-1.8 4.1-4.1v-44.3c0-2.3-1.8-4.1-4.1-4.1h-44.3c-2.3,0-4.1,1.8-4.1,4.1v44.3c0,2.2 1.9,4.1 4.1,4.1zm4.1-44.3h36.1v36.1h-36.1v-36.1z" data-original="#000000" class="active-path" fill="#000000"/>
      <path d="m118.5,70.1h-44.3c-2.3,0-4.1,1.8-4.1,4.1v44.3c0,2.3 1.8,4.1 4.1,4.1h44.3c2.3,0 4.1-1.8 4.1-4.1v-44.3c0-2.2-1.9-4.1-4.1-4.1zm-4.1,44.3h-36.1v-36.1h36.1v36.1z" data-original="#000000" class="active-path" fill="#000000"/>
    </g>
  </g></g> </svg>
