<?xml version='1.0' encoding='utf-8'?>
<svg version="1.1" xmlns="http://www.w3.org/2000/svg" viewBox="0 0 129 129" xmlns:xlink="http://www.w3.org/1999/xlink" enable-background="new 0 0 129 129">
  <g>
    <g>
      <path d="M64.5,6.5c-32,0-58.1,26-58.1,58s26,58,58.1,58c32,0,58-26,58-58S96.5,6.5,64.5,6.5z M64.5,114.4    C37,114.4,14.6,92,14.6,64.5S37,14.6,64.5,14.6c27.5,0,49.9,22.4,49.9,49.9S92,114.4,64.5,114.4z"/>
      <path d="m91.2,59.9h-22.6v-22.7c0-2.3-1.8-4.1-4.1-4.1-2.3,0-4.1,1.8-4.1,4.1v22.6h-22.6c-2.3,0-4.1,1.8-4.1,4.1s1.8,4.1 4.1,4.1h22.6v22.6c0,2.3 1.8,4.1 4.1,4.1 2.3,0 4.1-1.8 4.1-4.1v-22.6h22.6c2.3,0 4.1-1.8 4.1-4.1s-1.8-4-4.1-4z"/>
    </g>
  </g>
</svg>
