<?xml version='1.0' encoding='utf-8'?>
<svg version="1.1" xmlns="http://www.w3.org/2000/svg" viewBox="0 0 129 129" xmlns:xlink="http://www.w3.org/1999/xlink" enable-background="new 0 0 129 129">
  <g>
    <g>
      <path d="m10.5,52.4c-2.3,0-4.1,1.8-4.1,4.1v16c0,2.3 1.8,4.1 4.1,4.1h7.5c1.1,4.3 2.8,8.4 5.1,12.2l-5.2,5.2c-1.6,1.6-1.6,4.2 0,5.8l11.3,11.3c1.6,1.6 4.2,1.6 5.8,0l5.3-5.3c3.8,2.2 7.9,3.9 12.2,5v7.5c0,2.3 1.8,4.1 4.1,4.1h16c2.3,0 4.1-1.8 4.1-4.1v-7.6c4.3-1.1 8.3-2.8 12.1-5l5.4,5.4c1.6,1.6 4.2,1.6 5.8,0l11.3-11.3c1.6-1.6 1.6-4.2 0-5.8l-5.4-5.4c2.2-3.8 3.9-7.8 5-12.1h7.6c2.3,0 4.1-1.8 4.1-4.1v-16c0-2.3-1.8-4.1-4.1-4.1h-7.6c-1.1-4.3-2.8-8.3-5-12.1l5.4-5.4c1.6-1.6 1.6-4.2 0-5.8l-11.4-11.2c-1.6-1.6-4.2-1.6-5.8,0l-5.3,5.3c-3.8-2.2-7.9-3.9-12.2-5.1v-7.5c0-2.3-1.8-4.1-4.1-4.1h-16c-2.3,0-4.1,1.8-4.1,4.1v7.5c-4.3,1.1-8.4,2.8-12.2,5l-5.3-5.3c-1.6-1.6-4.2-1.6-5.8,0l-11.3,11.4c-1.6,1.6-1.6,4.2 0,5.8l5.2,5.2c-2.3,3.8-4,7.9-5.1,12.3h-7.4zm14.8,4.8c1-5.6 3.2-10.7 6.3-15.3 1.1-1.6 0.9-3.8-0.5-5.2l-4.6-4.7 5.5-5.5 4.7,4.7c1.4,1.4 3.6,1.6 5.2,0.5 4.6-3.2 9.8-5.3 15.3-6.3 1.9-0.4 3.4-2 3.4-4v-6.7h7.8v6.7c0,2 1.4,3.7 3.3,4 5.5,1 10.6,3.2 15.2,6.3 1.6,1.1 3.8,0.9 5.2-0.5l4.8-4.8 5.5,5.5-4.8,4.8c-1.4,1.4-1.6,3.6-0.5,5.2 3.1,4.6 5.2,9.7 6.3,15.2 0.4,1.9 2.1,3.4 4,3.4h6.8v7.8h-6.8c-2,0-3.7,1.4-4,3.3-1,5.5-3.1,10.6-6.3,15.2-1.1,1.6-0.9,3.8 0.5,5.2l4.8,4.8-5.5,5.5-4.8-4.8c-1.4-1.4-3.6-1.6-5.2-0.5-4.6,3.2-9.7,5.3-15.2,6.3-1.9,0.4-3.3,2.1-3.3,4v6.7h-7.8v-6.7c0-2-1.4-3.7-3.4-4-5.6-1-10.7-3.1-15.3-6.3-1.6-1.1-3.8-0.9-5.2,0.5l-4.7,4.7-5.5-5.2 4.7-4.7c1.4-1.4 1.6-3.6 0.5-5.2-3.2-4.6-5.3-9.8-6.4-15.3-0.4-1.9-2-3.3-4-3.3h-6.6v-7.8h6.6c1.9-0.1 3.6-1.5 4-3.5z"/>
      <path d="m64.4,93.2c15.5,0 28.1-12.6 28.1-28.1s-12.6-28.1-28.1-28.1-28.1,12.6-28.1,28.1 12.6,28.1 28.1,28.1zm0-48c11,0 19.9,8.9 19.9,19.9s-8.9,19.9-19.9,19.9-19.9-8.9-19.9-19.9 8.9-19.9 19.9-19.9z"/>
    </g>
  </g>
</svg>
