<?xml version='1.0' encoding='utf-8'?>
<svg version="1.1" xmlns="http://www.w3.org/2000/svg" viewBox="0 0 129 129" xmlns:xlink="http://www.w3.org/1999/xlink" enable-background="new 0 0 129 129">
  <g>
    <g>
      <path d="m10.5,31.2h4.5l10.5,87.7c0.2,2.1 2,3.6 4.1,3.6h69.8c2.1,0 3.8-1.5 4.1-3.6l10.5-87.7h4.5c2.3,0 4.1-1.8 4.1-4.1s-1.8-4.1-4.1-4.1h-8.2-23.2v-12.5c0-2.3-1.8-4.1-4.1-4.1h-37c-2.3,0-4.1,1.8-4.1,4.1v12.5h-23.2-8.2c-2.3,0-4.1,1.8-4.1,4.1s1.9,4.1 4.1,4.1zm39.6-16.6h28.8v8.4h-28.8v-8.4zm55.6,16.6l-9.9,83.2h-62.6l-9.9-83.2h82.4z"/>
      <path d="m50.9,101.9c2.3,0 4.1-1.8 4.1-4.1v-49.1c0-2.3-1.8-4.1-4.1-4.1-2.3,0-4.1,1.8-4.1,4.1v49.1c0,2.3 1.8,4.1 4.1,4.1z"/>
      <path d="m78.1,101.9c2.3,0 4.1-1.8 4.1-4.1v-49.1c0-2.3-1.8-4.1-4.1-4.1s-4.1,1.8-4.1,4.1v49.1c0,2.3 1.9,4.1 4.1,4.1z"/>
    </g>
  </g>
</svg>
