<!-- This Source Code Form is subject to the terms of the Mozilla Public
   - License, v. 2.0. If a copy of the MPL was not distributed with this
   - file, You can obtain one at http://mozilla.org/MPL/2.0/. -->
<svg xmlns="http://www.w3.org/2000/svg" width="16" height="16" viewBox="1 1 16 16">
    <path fill="transparent" {stroke} d="M15 16H9c-.6 0-1-.4-1-1v-5c0-.6.4-1 1-1h6c.6 0 1 .4 1 1v5c0 .6-.4 1-1 1zm0-8h-2c-.6 0-1-.4-1-1V3c0-.6.4-1 1-1h2c.6 0 1 .4 1 1v4c0 .6-.4 1-1 1zm-5 0H3c-.6 0-1-.4-1-1V3c0-.6.4-1 1-1h7c.6 0 1 .4 1 1v4c0 .6-.4 1-1 1zM3 9h3c.6 0 1 .4 1 1v5c0 .6-.4 1-1 1H3c-.6 0-1-.4-1-1v-5c0-.6.4-1 1-1z"/>
</svg>
