<svg xmlns="http://www.w3.org/2000/svg" width="16" height="16" viewBox="0 0 48 48" style="color-scheme: light dark;" fill="context-fill light-dark(#5b5b66,#fbfbfe)">
    <path d="m46.7257,5.92565l-3.68852,-4.47416c-0.74569,-0.87885 -1.85092,-1.45144 -3.0893,-1.45144l-31.95827,0c-1.23838,0 -2.34361,0.57259 -3.07598,1.45144l-3.68852,4.47416c-0.77232,0.93212 -1.22507,2.10392 -1.22507,3.39557l0,33.28986c0,2.94282 2.38355,5.32638 5.32638,5.32638l37.28464,0c2.94282,0 5.32638,-2.38356 5.32638,-5.32638l0,-33.28986c0,-1.29165 -0.45274,-2.46345 -1.21175,-3.39557zm-22.75695,32.69064l-14.64754,-14.64754l9.32116,0l0,-5.32638l10.65276,0l0,5.32638l9.32116,0l-14.64754,14.64754zm-18.30942,-33.28986l2.1705,-2.66319l31.95827,0l2.49008,2.66319l-36.61885,0z" />
</svg>
