<!-- This Source Code Form is subject to the terms of the Mozilla Public
   - License, v. 2.0. If a copy of the MPL was not distributed with this
   - file, You can obtain one at http://mozilla.org/MPL/2.0/. -->
<svg xmlns="http://www.w3.org/2000/svg" width="32" height="32" viewBox="0 0 32 32" class="mdl-js">
  <path fill="context-fill" d="M31.91 14.63c0-.29-.09-.46-.09-.46s-.11.13-.3.38a10.8 10.8 0 0 0-.37-2 13.88 13.88 0 0 0-.94-2.42 10.08 10.08 0 0 0-.86-1.47L29 8.1c-.57-.93-1.23-1.5-2-2.58a7.83 7.83 0 0 1-1-2.69 10.88 10.88 0 0 0-.48 1.76c-.78-.79-1.46-1.35-1.87-1.73C21.65 1 21.88 0 21.88 0s-3.77 4.21-2.14 8.6a8.43 8.43 0 0 0 2.81 3.74c1.58 1.3 3.28 2.33 4.18 5A8.4 8.4 0 0 0 23.58 14a7.59 7.59 0 0 1 .6 3 7.14 7.14 0 0 1-8.74 7 6.58 6.58 0 0 1-1.77-.6 7.2 7.2 0 0 1-2.12-2h.13c.294.101.595.182.9.24a5.64 5.64 0 0 0 3.59-.42c1.13-.63 1.81-1.09 2.37-.91.54.17 1-.35.58-.9a3 3 0 0 0-2.86-1.11c-1.13.16-2.17 1-3.65.19l-.28-.16c-.1-.06.32.09.22 0a7.35 7.35 0 0 1-.93-.56s.22.07.2.05a3.59 3.59 0 0 1-1-1 1.75 1.75 0 0 1-.07-1.56 1.38 1.38 0 0 1 .6-.57l.31.17-.13-.24c.17.07.54.26.73.38a1 1 0 0 1 .34.3s.07 0 0-.17a.91.91 0 0 0-.35-.42 3 3 0 0 1 .43.27 2.09 2.09 0 0 0 .32-.88 1.18 1.18 0 0 0-.07-.5c-.05-.1 0-.14.12 0a1 1 0 0 0-.08-.24l.08-.09a1.43 1.43 0 0 1 .22-.18 10 10 0 0 1 1.47-.75l.83-.36c.103-.069.2-.146.29-.23a2 2 0 0 0 .66-1.14 1.59 1.59 0 0 0 0-.18c-.06-.23-.45-.39-2.48-.59a1.78 1.78 0 0 1-1.45-1.36l-.08.23.08-.23a5.15 5.15 0 0 1 2-2.47h-.16a5.18 5.18 0 0 1 .53-.23c.09 0-.39-.22-.82-.18a2.2 2.2 0 0 0-.76.18c.1-.09.4-.2.33-.2a4.88 4.88 0 0 0-1.57.42.31.31 0 0 1 0-.14 2.41 2.41 0 0 0-1 .75 1.29 1.29 0 0 0 0-.17 2.88 2.88 0 0 0-.47.45 6.3 6.3 0 0 0-3.53-.3 3 3 0 0 1-.63-.7c-.08-.11-.16-.24-.24-.39l-.18-.34s0 .11-.06.08a4.32 4.32 0 0 1-.28-1.69 1.89 1.89 0 0 0-.72.94c-.06.14-.1.21-.14.29-.04.08 0-.21 0-.2a1.74 1.74 0 0 0-.25.37 2.37 2.37 0 0 0-.15.38v-.17a9.53 9.53 0 0 0-.81 3 3 3 0 0 0 0 .54 6.64 6.64 0 0 0-.82 1.1 15.65 15.65 0 0 0-1.74 4.26A10.38 10.38 0 0 1 2 12.43a15 15 0 0 0-1 5.51 14.26 14.26 0 0 1 .45-1.63A13.85 13.85 0 0 0 2.7 22.8a15.08 15.08 0 0 0 6 6.77 13.06 13.06 0 0 0 3.48 1.67l.5.17-.15-.07A15.75 15.75 0 0 0 17 32c5.41 0 7.2-2.06 7.36-2.27a2.74 2.74 0 0 0 .64-.86l.32-.14h.07l.12-.06a11.35 11.35 0 0 0 2.28-1.43 5.51 5.51 0 0 0 2.13-3.11 1.94 1.94 0 0 0 0-1.43l.17-.28A12.74 12.74 0 0 0 32 16.2v-.18a7.76 7.76 0 0 0-.09-1.39z"/>
</svg>
