<?xml version="1.0" encoding="utf-8"?>
<!-- Svg Vector Icons : http://www.onlinewebfonts.com/icon -->
<!DOCTYPE svg PUBLIC "-//W3C//DTD SVG 1.1//EN" "http://www.w3.org/Graphics/SVG/1.1/DTD/svg11.dtd">
<svg version="1.1" xmlns="http://www.w3.org/2000/svg" xmlns:xlink="http://www.w3.org/1999/xlink" x="0px" y="0px" viewBox="0 0 1000 1000" enable-background="new 0 0 1000 1000" xml:space="preserve">
<metadata> Svg Vector Icons : http://www.onlinewebfonts.com/icon </metadata>
<g><g transform="translate(0.000000,512.000000) scale(0.100000,-0.100000)"><path d="M1279.5,4997.9c-356.7-97.8-575.3-393.2-575.3-778.6c0-335.6-84.4-548.5-280-723c-155.3-138.1-224.4-243.6-280-437.3L100,2905.6V-709.5v-3615.1l49.9-105.5c63.3-134.2,170.7-241.6,304.9-304.9l105.5-49.9H5000h4439.7l107.4,49.9c136.2,63.3,239.7,166.9,303,303l49.9,107.4v3519.2v3519.2l-49.9,105.5c-105.5,222.5-285.8,337.5-569.6,364.4c-187.9,17.3-270.4,46-364.4,124.7c-155.4,130.4-212.9,326-234,795.9c-19.2,423.8-59.4,540.8-241.6,711.5c-207.1,191.8-289.6,209-1037.5,209h-598.4l94-88.2c107.4-101.6,197.5-266.6,230.1-420l21.1-105.5h418.1c517.8,0,485.2,21.1,517.8-326c36.4-398.9,97.8-621.4,222.5-805.5l65.2-95.9h-514c-569.6,0-648.2,11.5-774.8,115.1c-165,138.1-222.5,326-243.6,805.5c-19.2,423.8-59.4,540.8-241.6,711.5c-207.1,191.8-289.6,209-1037.5,209h-598.3l94-88.2c107.4-101.6,197.5-266.6,230.1-420l21.1-105.5h418.1c519.7,0,487.1,21.1,517.8-326c34.5-391.2,97.8-621.4,222.5-805.5l65.2-95.9h-514c-579.2,0-650.1,11.5-782.5,124.7c-157.3,134.2-214.8,326-235.9,795.9c-9.6,226.3-24.9,364.4-46,421.9c-65.2,180.3-253.2,372.1-446.9,450.7c-88.2,36.4-145.7,38.4-1616.7,42.2C1716.7,5021,1346.6,5017.1,1279.5,4997.9z M8975.6,2543.2c105.5-38.4,197.5-117,257-218.6l53.7-90.1L9292-767c5.8-3381.1,17.3-3116.4-141.9-3271.8c-159.2-155.4,203.3-141.9-4150.1-141.9c-4363,0-3992.9-13.4-4150.1,145.7c-157.3,157.3-145.8-103.5-145.8,3229.6c0,3331.2-11.5,3078.1,143.8,3231.5c151.5,153.4-211,140,4152.1,141.9C8212.3,2568.1,8916.2,2564.2,8975.6,2543.2z"/></g></g>
</svg>