<svg xmlns="http://www.w3.org/2000/svg" width="48" height="48" viewBox="0 0 48 48">
    <path fill="context-fill" fill-opacity="context-fill-opacity" d="m46.66468,5.91786l-3.6837,-4.46832c-0.74472,-0.87771 -1.8485,-1.44954 -3.08527,-1.44954l-31.91656,0c-1.23677,0 -2.34055,0.57184 -3.07197,1.44954l-3.6837,4.46832c-0.77132,0.9309 -1.22347,2.10117 -1.22347,3.39114l0,33.24642c0,2.93898 2.38044,5.31943 5.31943,5.31943l37.23599,0c2.93898,0 5.31943,-2.38044 5.31943,-5.31943l0,-33.24642c0,-1.28996 -0.45215,-2.46024 -1.21017,-3.39114zm-22.72725,11.37028l14.62843,14.62843l-9.309,0l0,5.31943l-10.63885,0l0,-5.31943l-9.309,0l14.62843,-14.62843zm-18.28553,-11.96871l2.16767,-2.65971l31.91657,0l2.48683,2.65971l-36.57106,0z" />
</svg>
